# MagicaVoxel @ Ephtracy

# group
o dino_body

# material
mtllib head.mtl
usemtl palette

# normals
vn -1 0 0
vn 1 0 0
vn 0 0 1
vn 0 0 -1
vn 0 -1 0
vn 0 1 0

# texcoords
vt 0.00585938 0.5
vt 0.00976563 0.5
vt 0.0410156 0.5
vt 0.0449219 0.5

# verts
v -0.7 2.7 0.5
v -0.7 2.7 0.2
v -0.7 2.8 0.5
v -0.7 2.8 0.3
v -0.7 3 0.5
v -0.7 3 0.3
v -0.7 3 0.2
v -0.5 1.6 0.4
v -0.5 1.6 0.3
v -0.5 1.6 -0.4
v -0.5 1.7 0.3
v -0.5 1.7 0
v -0.5 1.8 0
v -0.5 1.8 -0.3
v -0.5 2.2 1.2
v -0.5 2.2 1
v -0.5 2.2 0.8
v -0.5 2.2 0.6
v -0.5 2.3 1.2
v -0.5 2.3 1
v -0.5 2.3 0.8
v -0.5 2.3 0.6
v -0.5 2.3 0.4
v -0.5 2.3 -0.3
v -0.5 2.3 -0.4
v -0.5 2.6 1.2
v -0.5 2.6 1
v -0.5 2.6 -0.2
v -0.5 2.6 -0.4
v -0.5 2.7 1.2
v -0.5 2.7 1.1
v -0.5 2.7 0.5
v -0.5 2.7 0.2
v -0.5 2.8 1.1
v -0.5 2.8 1
v -0.5 2.8 0.5
v -0.5 2.8 0.2
v -0.5 2.8 -0.2
v -0.4 2.7 1.2
v -0.4 2.7 1.1
v -0.4 2.8 1.2
v -0.4 2.8 1.1
v -0.3 2.6 -0.2
v -0.3 2.6 -0.4
v -0.3 2.8 -0.2
v -0.3 2.8 -0.4
v -0.2 2.2 1.2
v -0.2 2.2 1.1
v -0.2 2.3 1.2
v -0.2 2.3 1.1
v 0.2 2.2 1.2
v 0.2 2.2 1.1
v 0.2 2.3 1.2
v 0.2 2.3 1.1
v 0.6 2.2 1.2
v 0.6 2.2 1
v 0.6 2.2 0.8
v 0.6 2.2 0.6
v 0.6 2.3 1.2
v 0.6 2.3 1
v 0.6 2.3 0.8
v 0.6 2.3 0.6
v 0.6 2.8 0.5
v 0.6 2.8 0.2
v 0.6 3 0.5
v 0.6 3 0.2
v -0.4 2.2 1.2
v -0.4 2.2 1
v -0.4 2.2 0.8
v -0.4 2.2 0.6
v -0.4 2.3 1.2
v -0.4 2.3 1
v -0.4 2.3 0.8
v -0.4 2.3 0.6
v -0.4 2.8 0.5
v -0.4 2.8 0.2
v -0.4 3 0.5
v -0.4 3 0.2
v 0 2.2 1.2
v 0 2.2 1.1
v 0 2.3 1.2
v 0 2.3 1.1
v 0.4 2.2 1.2
v 0.4 2.2 1.1
v 0.4 2.3 1.2
v 0.4 2.3 1.1
v 0.5 2.6 -0.2
v 0.5 2.6 -0.4
v 0.5 2.8 -0.2
v 0.5 2.8 -0.4
v 0.6 2.7 1.2
v 0.6 2.7 1.1
v 0.6 2.8 1.2
v 0.6 2.8 1.1
v 0.7 1.6 0.4
v 0.7 1.6 -0.4
v 0.7 1.7 0.4
v 0.7 1.7 -0.0999999
v 0.7 1.8 -0.0999999
v 0.7 1.8 -0.3
v 0.7 2.2 1.2
v 0.7 2.2 1
v 0.7 2.2 0.8
v 0.7 2.2 0.6
v 0.7 2.3 1.2
v 0.7 2.3 1
v 0.7 2.3 0.8
v 0.7 2.3 0.6
v 0.7 2.3 0.4
v 0.7 2.3 -0.3
v 0.7 2.3 -0.4
v 0.7 2.6 1.2
v 0.7 2.6 1
v 0.7 2.6 -0.2
v 0.7 2.6 -0.4
v 0.7 2.7 1.2
v 0.7 2.7 1.1
v 0.7 2.7 0.5
v 0.7 2.7 0.2
v 0.7 2.8 1.1
v 0.7 2.8 1
v 0.7 2.8 0.5
v 0.7 2.8 0.2
v 0.7 2.8 -0.2
v 0.9 2.7 0.5
v 0.9 2.7 0.2
v 0.9 2.8 0.5
v 0.9 2.8 0.3
v 0.9 3 0.5
v 0.9 3 0.3
v 0.9 3 0.2
v -0.5 2.2 1.2
v -0.5 2.3 1.2
v -0.5 2.6 1.2
v -0.5 2.7 1.2
v -0.4 2.2 1.2
v -0.4 2.3 1.2
v -0.4 2.7 1.2
v -0.4 2.8 1.2
v -0.3 2.6 1.2
v -0.3 2.8 1.2
v -0.2 2.2 1.2
v -0.2 2.3 1.2
v 0 2.2 1.2
v 0 2.3 1.2
v 0 2.7 1.2
v 0 2.8 1.2
v 0.2 2.2 1.2
v 0.2 2.3 1.2
v 0.2 2.7 1.2
v 0.2 2.8 1.2
v 0.4 2.2 1.2
v 0.4 2.3 1.2
v 0.5 2.6 1.2
v 0.5 2.8 1.2
v 0.6 2.2 1.2
v 0.6 2.3 1.2
v 0.6 2.7 1.2
v 0.6 2.8 1.2
v 0.7 2.2 1.2
v 0.7 2.3 1.2
v 0.7 2.6 1.2
v 0.7 2.7 1.2
v -0.5 2.7 1.1
v -0.5 2.8 1.1
v -0.4 2.7 1.1
v -0.4 2.8 1.1
v 0.6 2.7 1.1
v 0.6 2.8 1.1
v 0.7 2.7 1.1
v 0.7 2.8 1.1
v -0.5 2.2 0.8
v -0.5 2.3 0.8
v -0.4 2.2 0.8
v -0.4 2.3 0.8
v 0.6 2.2 0.8
v 0.6 2.3 0.8
v 0.7 2.2 0.8
v 0.7 2.3 0.8
v -0.7 2.7 0.5
v -0.7 2.8 0.5
v -0.7 3 0.5
v -0.5 2.7 0.5
v -0.5 2.8 0.5
v -0.5 3 0.5
v -0.4 2.8 0.5
v -0.4 3 0.5
v 0.6 2.8 0.5
v 0.6 3 0.5
v 0.7 2.7 0.5
v 0.7 2.8 0.5
v 0.7 3 0.5
v 0.9 2.7 0.5
v 0.9 2.8 0.5
v 0.9 3 0.5
v -0.5 1.6 0.4
v -0.5 2.3 0.4
v -0.4 1.9 0.4
v -0.4 2.3 0.4
v -0.1 1.9 0.4
v -0.1 2 0.4
v 0.3 1.9 0.4
v 0.3 2 0.4
v 0.6 1.6 0.4
v 0.6 1.7 0.4
v 0.6 1.9 0.4
v 0.6 2.3 0.4
v 0.7 1.6 0.4
v 0.7 1.7 0.4
v 0.7 2.3 0.4
v -0.2 2.2 1.1
v -0.2 2.3 1.1
v 0 2.2 1.1
v 0 2.3 1.1
v 0.2 2.2 1.1
v 0.2 2.3 1.1
v 0.4 2.2 1.1
v 0.4 2.3 1.1
v -0.5 2.2 1
v -0.5 2.3 1
v -0.4 2.2 1
v -0.4 2.3 1
v 0.6 2.2 1
v 0.6 2.3 1
v 0.7 2.2 1
v 0.7 2.3 1
v -0.5 2.2 0.6
v -0.5 2.3 0.6
v -0.4 2.2 0.6
v -0.4 2.3 0.6
v 0.6 2.2 0.6
v 0.6 2.3 0.6
v 0.7 2.2 0.6
v 0.7 2.3 0.6
v -0.7 2.7 0.2
v -0.7 3 0.2
v -0.5 2.7 0.2
v -0.5 2.8 0.2
v -0.4 2.8 0.2
v -0.4 3 0.2
v 0.6 2.8 0.2
v 0.6 3 0.2
v 0.7 2.7 0.2
v 0.7 2.8 0.2
v 0.9 2.7 0.2
v 0.9 3 0.2
v -0.5 2.6 -0.2
v -0.5 2.8 -0.2
v -0.3 2.6 -0.2
v -0.3 2.8 -0.2
v 0.5 2.6 -0.2
v 0.5 2.8 -0.2
v 0.7 2.6 -0.2
v 0.7 2.8 -0.2
v -0.5 1.6 -0.4
v -0.5 2.3 -0.4
v -0.5 2.6 -0.4
v -0.4 1.7 -0.4
v -0.4 2.3 -0.4
v -0.3 2.6 -0.4
v -0.3 2.8 -0.4
v 0 1.7 -0.4
v 0 2.4 -0.4
v 0.2 1.7 -0.4
v 0.2 2.4 -0.4
v 0.5 2.6 -0.4
v 0.5 2.8 -0.4
v 0.6 1.7 -0.4
v 0.6 2.3 -0.4
v 0.7 1.6 -0.4
v 0.7 2.3 -0.4
v 0.7 2.6 -0.4
v -0.5 1.6 0.4
v 0.6 1.6 0.4
v 0.7 1.6 0.4
v -0.5 1.6 0.3
v -0.4 1.6 0.3
v -0.4 1.6 -0.3
v 0.6 1.6 -0.3
v -0.5 1.6 -0.4
v 0.7 1.6 -0.4
v -0.5 2.2 1.2
v -0.4 2.2 1.2
v -0.2 2.2 1.2
v 0 2.2 1.2
v 0.2 2.2 1.2
v 0.4 2.2 1.2
v 0.6 2.2 1.2
v 0.7 2.2 1.2
v -0.2 2.2 1.1
v 0 2.2 1.1
v 0.2 2.2 1.1
v 0.4 2.2 1.1
v -0.5 2.2 1
v -0.4 2.2 1
v 0.6 2.2 1
v 0.7 2.2 1
v -0.5 2.2 0.8
v -0.4 2.2 0.8
v 0.6 2.2 0.8
v 0.7 2.2 0.8
v -0.5 2.2 0.6
v -0.4 2.2 0.6
v 0.6 2.2 0.6
v 0.7 2.2 0.6
v -0.4 2.3 1.2
v -0.2 2.3 1.2
v 0 2.3 1.2
v 0.2 2.3 1.2
v 0.4 2.3 1.2
v 0.6 2.3 1.2
v -0.2 2.3 1.1
v 0 2.3 1.1
v 0.2 2.3 1.1
v 0.4 2.3 1.1
v -0.5 2.3 1
v -0.4 2.3 1
v 0.6 2.3 1
v 0.7 2.3 1
v -0.5 2.3 0.8
v -0.4 2.3 0.8
v 0.6 2.3 0.8
v 0.7 2.3 0.8
v -0.5 2.3 0.6
v -0.4 2.3 0.6
v 0.6 2.3 0.6
v 0.7 2.3 0.6
v -0.5 2.3 0.4
v -0.4 2.3 0.4
v 0.6 2.3 0.4
v 0.7 2.3 0.4
v -0.7 2.7 0.5
v -0.5 2.7 0.5
v 0.7 2.7 0.5
v 0.9 2.7 0.5
v -0.7 2.7 0.2
v -0.5 2.7 0.2
v 0.7 2.7 0.2
v 0.9 2.7 0.2
v -0.5 2.6 -0.2
v -0.3 2.6 -0.2
v 0.5 2.6 -0.2
v 0.7 2.6 -0.2
v -0.5 2.6 -0.4
v -0.3 2.6 -0.4
v 0.5 2.6 -0.4
v 0.7 2.6 -0.4
v -0.5 2.7 1.2
v -0.4 2.7 1.2
v 0.6 2.7 1.2
v 0.7 2.7 1.2
v -0.5 2.7 1.1
v -0.4 2.7 1.1
v 0.6 2.7 1.1
v 0.7 2.7 1.1
v -0.4 2.8 1.2
v -0.3 2.8 1.2
v 0 2.8 1.2
v 0.2 2.8 1.2
v 0.5 2.8 1.2
v 0.6 2.8 1.2
v -0.5 2.8 1.1
v -0.4 2.8 1.1
v 0.6 2.8 1.1
v 0.7 2.8 1.1
v -0.5 2.8 1
v -0.3 2.8 1
v 0.5 2.8 1
v 0.7 2.8 1
v -0.1 2.8 0.9
v 0 2.8 0.9
v 0.2 2.8 0.9
v 0.3 2.8 0.9
v -0.1 2.8 0.8
v 0 2.8 0.8
v 0.2 2.8 0.8
v 0.3 2.8 0.8
v -0.1 2.8 0.7
v 0 2.8 0.7
v 0.2 2.8 0.7
v 0.3 2.8 0.7
v -0.1 2.8 0.6
v 0 2.8 0.6
v 0.2 2.8 0.6
v 0.3 2.8 0.6
v -0.5 2.8 0.5
v -0.4 2.8 0.5
v 0 2.8 0.5
v 0.2 2.8 0.5
v 0.6 2.8 0.5
v 0.7 2.8 0.5
v -0.5 2.8 0.2
v -0.4 2.8 0.2
v 0.6 2.8 0.2
v 0.7 2.8 0.2
v 0 2.8 0.1
v 0.2 2.8 0.1
v -0.5 2.8 -0.2
v -0.3 2.8 -0.2
v 0.5 2.8 -0.2
v 0.7 2.8 -0.2
v 0 2.8 -0.3
v 0.2 2.8 -0.3
v -0.3 2.8 -0.4
v 0.5 2.8 -0.4
v -0.7 3 0.5
v -0.5 3 0.5
v -0.4 3 0.5
v 0.6 3 0.5
v 0.7 3 0.5
v 0.9 3 0.5
v -0.7 3 0.3
v -0.5 3 0.3
v 0.7 3 0.3
v 0.9 3 0.3
v -0.7 3 0.2
v -0.4 3 0.2
v 0.6 3 0.2
v 0.9 3 0.2

# faces
f 3/3/1 2/3/1 1/3/1
f 4/3/1 2/3/1 3/3/1
f 5/4/1 4/4/1 3/4/1
f 6/3/1 2/3/1 4/3/1
f 6/4/1 4/4/1 5/4/1
f 7/3/1 2/3/1 6/3/1
f 11/2/1 9/2/1 8/2/1
f 11/1/1 10/1/1 9/1/1
f 12/1/1 10/1/1 11/1/1
f 13/2/1 12/2/1 11/2/1
f 13/1/1 10/1/1 12/1/1
f 14/1/1 10/1/1 13/1/1
f 19/3/1 16/3/1 15/3/1
f 20/3/1 16/3/1 19/3/1
f 21/3/1 18/3/1 17/3/1
f 22/3/1 18/3/1 21/3/1
f 23/2/1 11/2/1 8/2/1
f 23/2/1 13/2/1 11/2/1
f 23/2/1 14/2/1 13/2/1
f 24/1/1 10/1/1 14/1/1
f 24/2/1 14/2/1 23/2/1
f 25/1/1 10/1/1 24/1/1
f 26/2/1 22/2/1 21/2/1
f 26/2/1 21/2/1 20/2/1
f 26/2/1 25/2/1 24/2/1
f 26/2/1 24/2/1 23/2/1
f 26/2/1 23/2/1 22/2/1
f 26/2/1 20/2/1 19/2/1
f 27/2/1 25/2/1 26/2/1
f 28/2/1 25/2/1 27/2/1
f 29/2/1 25/2/1 28/2/1
f 30/1/1 27/1/1 26/1/1
f 31/1/1 27/1/1 30/1/1
f 32/2/1 28/2/1 27/2/1
f 33/2/1 28/2/1 32/2/1
f 34/1/1 27/1/1 31/1/1
f 35/2/1 32/2/1 27/2/1
f 35/1/1 27/1/1 34/1/1
f 36/2/1 32/2/1 35/2/1
f 37/2/1 28/2/1 33/2/1
f 38/2/1 28/2/1 37/2/1
f 41/1/1 40/1/1 39/1/1
f 42/1/1 40/1/1 41/1/1
f 45/2/1 44/2/1 43/2/1
f 46/2/1 44/2/1 45/2/1
f 49/3/1 48/3/1 47/3/1
f 50/3/1 48/3/1 49/3/1
f 53/3/1 52/3/1 51/3/1
f 54/3/1 52/3/1 53/3/1
f 59/3/1 56/3/1 55/3/1
f 60/3/1 56/3/1 59/3/1
f 61/3/1 58/3/1 57/3/1
f 62/3/1 58/3/1 61/3/1
f 65/3/1 64/3/1 63/3/1
f 66/3/1 64/3/1 65/3/1
f 67/3/2 68/3/2 71/3/2
f 71/3/2 68/3/2 72/3/2
f 69/3/2 70/3/2 73/3/2
f 73/3/2 70/3/2 74/3/2
f 75/3/2 76/3/2 77/3/2
f 77/3/2 76/3/2 78/3/2
f 79/3/2 80/3/2 81/3/2
f 81/3/2 80/3/2 82/3/2
f 83/3/2 84/3/2 85/3/2
f 85/3/2 84/3/2 86/3/2
f 87/2/2 88/2/2 89/2/2
f 89/2/2 88/2/2 90/2/2
f 91/1/2 92/1/2 93/1/2
f 93/1/2 92/1/2 94/1/2
f 95/1/2 96/1/2 97/1/2
f 97/1/2 96/1/2 98/1/2
f 97/2/2 98/2/2 99/2/2
f 98/1/2 96/1/2 99/1/2
f 99/1/2 96/1/2 100/1/2
f 101/3/2 102/3/2 105/3/2
f 105/3/2 102/3/2 106/3/2
f 103/3/2 104/3/2 107/3/2
f 107/3/2 104/3/2 108/3/2
f 97/2/2 99/2/2 109/2/2
f 99/2/2 100/2/2 109/2/2
f 100/1/2 96/1/2 110/1/2
f 109/2/2 100/2/2 110/2/2
f 110/1/2 96/1/2 111/1/2
f 107/2/2 108/2/2 112/2/2
f 106/2/2 107/2/2 112/2/2
f 110/2/2 111/2/2 112/2/2
f 109/2/2 110/2/2 112/2/2
f 108/2/2 109/2/2 112/2/2
f 105/2/2 106/2/2 112/2/2
f 112/2/2 111/2/2 113/2/2
f 113/2/2 111/2/2 114/2/2
f 114/2/2 111/2/2 115/2/2
f 112/1/2 113/1/2 116/1/2
f 116/1/2 113/1/2 117/1/2
f 113/2/2 114/2/2 118/2/2
f 118/2/2 114/2/2 119/2/2
f 117/1/2 113/1/2 120/1/2
f 113/2/2 118/2/2 121/2/2
f 120/1/2 113/1/2 121/1/2
f 121/2/2 118/2/2 122/2/2
f 119/2/2 114/2/2 123/2/2
f 123/2/2 114/2/2 124/2/2
f 125/3/2 126/3/2 127/3/2
f 127/3/2 126/3/2 128/3/2
f 127/4/2 128/4/2 129/4/2
f 128/3/2 126/3/2 130/3/2
f 129/4/2 128/4/2 130/4/2
f 130/3/2 126/3/2 131/3/2
f 136/3/3 133/3/3 132/3/3
f 137/2/3 134/2/3 133/2/3
f 137/3/3 133/3/3 136/3/3
f 138/1/3 135/1/3 134/1/3
f 140/2/3 134/2/3 137/2/3
f 140/1/3 139/1/3 138/1/3
f 140/1/3 138/1/3 134/1/3
f 141/1/3 139/1/3 140/1/3
f 143/2/3 140/2/3 137/2/3
f 143/2/3 141/2/3 140/2/3
f 144/3/3 143/3/3 142/3/3
f 145/2/3 141/2/3 143/2/3
f 145/3/3 143/3/3 144/3/3
f 146/2/3 141/2/3 145/2/3
f 147/2/3 141/2/3 146/2/3
f 149/2/3 146/2/3 145/2/3
f 150/1/3 147/1/3 146/1/3
f 150/2/3 146/2/3 149/2/3
f 151/1/3 147/1/3 150/1/3
f 152/3/3 149/3/3 148/3/3
f 153/2/3 150/2/3 149/2/3
f 153/3/3 149/3/3 152/3/3
f 153/2/3 151/2/3 150/2/3
f 154/2/3 151/2/3 153/2/3
f 155/2/3 151/2/3 154/2/3
f 157/2/3 154/2/3 153/2/3
f 158/1/3 155/1/3 154/1/3
f 159/1/3 155/1/3 158/1/3
f 160/3/3 157/3/3 156/3/3
f 161/2/3 154/2/3 157/2/3
f 161/3/3 157/3/3 160/3/3
f 162/1/3 158/1/3 154/1/3
f 162/2/3 154/2/3 161/2/3
f 163/1/3 158/1/3 162/1/3
f 166/1/3 165/1/3 164/1/3
f 167/1/3 165/1/3 166/1/3
f 170/1/3 169/1/3 168/1/3
f 171/1/3 169/1/3 170/1/3
f 174/3/3 173/3/3 172/3/3
f 175/3/3 173/3/3 174/3/3
f 178/3/3 177/3/3 176/3/3
f 179/3/3 177/3/3 178/3/3
f 183/3/3 181/3/3 180/3/3
f 184/4/3 182/4/3 181/4/3
f 184/3/3 181/3/3 183/3/3
f 185/4/3 182/4/3 184/4/3
f 186/3/3 185/3/3 184/3/3
f 187/3/3 185/3/3 186/3/3
f 191/3/3 189/3/3 188/3/3
f 192/3/3 189/3/3 191/3/3
f 193/3/3 191/3/3 190/3/3
f 194/4/3 192/4/3 191/4/3
f 194/3/3 191/3/3 193/3/3
f 195/4/3 192/4/3 194/4/3
f 198/2/3 197/2/3 196/2/3
f 199/2/3 197/2/3 198/2/3
f 200/2/3 198/2/3 196/2/3
f 200/4/3 199/4/3 198/4/3
f 201/4/3 199/4/3 200/4/3
f 202/2/3 200/2/3 196/2/3
f 202/2/3 201/2/3 200/2/3
f 203/4/3 199/4/3 201/4/3
f 203/2/3 201/2/3 202/2/3
f 204/2/3 202/2/3 196/2/3
f 205/2/3 202/2/3 204/2/3
f 206/4/3 203/4/3 202/4/3
f 206/2/3 202/2/3 205/2/3
f 207/4/3 199/4/3 203/4/3
f 207/4/3 203/4/3 206/4/3
f 208/1/3 205/1/3 204/1/3
f 209/2/3 206/2/3 205/2/3
f 209/1/3 205/1/3 208/1/3
f 209/2/3 207/2/3 206/2/3
f 210/2/3 207/2/3 209/2/3
f 211/3/4 212/3/4 213/3/4
f 213/3/4 212/3/4 214/3/4
f 215/3/4 216/3/4 217/3/4
f 217/3/4 216/3/4 218/3/4
f 219/3/4 220/3/4 221/3/4
f 221/3/4 220/3/4 222/3/4
f 223/3/4 224/3/4 225/3/4
f 225/3/4 224/3/4 226/3/4
f 227/3/4 228/3/4 229/3/4
f 229/3/4 228/3/4 230/3/4
f 231/3/4 232/3/4 233/3/4
f 233/3/4 232/3/4 234/3/4
f 235/3/4 236/3/4 237/3/4
f 237/3/4 236/3/4 238/3/4
f 238/3/4 236/3/4 239/3/4
f 239/3/4 236/3/4 240/3/4
f 241/3/4 242/3/4 244/3/4
f 243/3/4 244/3/4 245/3/4
f 244/3/4 242/3/4 246/3/4
f 245/3/4 244/3/4 246/3/4
f 247/2/4 248/2/4 249/2/4
f 249/2/4 248/2/4 250/2/4
f 251/2/4 252/2/4 253/2/4
f 253/2/4 252/2/4 254/2/4
f 255/1/4 256/1/4 258/1/4
f 256/2/4 257/2/4 259/2/4
f 258/1/4 256/1/4 259/1/4
f 258/2/4 259/2/4 260/2/4
f 259/2/4 257/2/4 260/2/4
f 255/1/4 258/1/4 262/1/4
f 260/2/4 261/2/4 262/2/4
f 258/2/4 260/2/4 262/2/4
f 262/2/4 261/2/4 263/2/4
f 255/1/4 262/1/4 264/1/4
f 262/1/4 263/1/4 264/1/4
f 263/2/4 261/2/4 265/2/4
f 264/1/4 263/1/4 265/1/4
f 264/2/4 265/2/4 266/2/4
f 265/2/4 261/2/4 266/2/4
f 266/2/4 261/2/4 267/2/4
f 255/1/4 264/1/4 268/1/4
f 264/2/4 266/2/4 268/2/4
f 268/2/4 266/2/4 269/2/4
f 255/1/4 268/1/4 270/1/4
f 268/1/4 269/1/4 270/1/4
f 269/2/4 266/2/4 271/2/4
f 270/1/4 269/1/4 271/1/4
f 271/2/4 266/2/4 272/2/4
f 276/2/5 274/2/5 273/2/5
f 277/2/5 274/2/5 276/2/5
f 278/1/5 277/1/5 276/1/5
f 278/2/5 274/2/5 277/2/5
f 279/1/5 275/1/5 274/1/5
f 279/2/5 274/2/5 278/2/5
f 280/1/5 278/1/5 276/1/5
f 280/1/5 279/1/5 278/1/5
f 281/1/5 275/1/5 279/1/5
f 281/1/5 279/1/5 280/1/5
f 290/3/5 285/3/5 284/3/5
f 291/3/5 285/3/5 290/3/5
f 292/3/5 287/3/5 286/3/5
f 293/3/5 287/3/5 292/3/5
f 294/3/5 283/3/5 282/3/5
f 295/3/5 283/3/5 294/3/5
f 296/3/5 289/3/5 288/3/5
f 297/3/5 289/3/5 296/3/5
f 302/3/5 299/3/5 298/3/5
f 303/3/5 299/3/5 302/3/5
f 304/3/5 301/3/5 300/3/5
f 305/3/5 301/3/5 304/3/5
f 312/2/5 307/2/5 306/2/5
f 313/2/5 309/2/5 308/2/5
f 314/2/5 309/2/5 313/2/5
f 315/2/5 311/2/5 310/2/5
f 317/2/5 314/2/5 313/2/5
f 317/2/5 315/2/5 314/2/5
f 317/2/5 312/2/5 306/2/5
f 317/2/5 313/2/5 312/2/5
f 318/2/5 311/2/5 315/2/5
f 318/2/5 315/2/5 317/2/5
f 320/2/5 317/2/5 316/2/5
f 320/2/5 319/2/5 318/2/5
f 320/2/5 318/2/5 317/2/5
f 321/2/5 319/2/5 320/2/5
f 322/2/5 319/2/5 321/2/5
f 323/2/5 319/2/5 322/2/5
f 325/2/5 322/2/5 321/2/5
f 326/2/5 322/2/5 325/2/5
f 328/2/5 325/2/5 324/2/5
f 328/2/5 327/2/5 326/2/5
f 328/2/5 326/2/5 325/2/5
f 329/2/5 327/2/5 328/2/5
f 330/2/5 327/2/5 329/2/5
f 331/2/5 327/2/5 330/2/5
f 336/3/5 333/3/5 332/3/5
f 337/3/5 333/3/5 336/3/5
f 338/3/5 335/3/5 334/3/5
f 339/3/5 335/3/5 338/3/5
f 340/2/6 341/2/6 344/2/6
f 344/2/6 341/2/6 345/2/6
f 342/2/6 343/2/6 346/2/6
f 346/2/6 343/2/6 347/2/6
f 348/1/6 349/1/6 352/1/6
f 352/1/6 349/1/6 353/1/6
f 350/1/6 351/1/6 354/1/6
f 354/1/6 351/1/6 355/1/6
f 356/1/6 357/1/6 363/1/6
f 360/1/6 361/1/6 364/1/6
f 362/1/6 363/1/6 366/1/6
f 357/2/6 358/2/6 367/2/6
f 366/1/6 363/1/6 367/1/6
f 363/1/6 357/1/6 367/1/6
f 364/1/6 365/1/6 368/1/6
f 359/2/6 360/2/6 368/2/6
f 360/1/6 364/1/6 368/1/6
f 368/1/6 365/1/6 369/1/6
f 367/2/6 358/2/6 370/2/6
f 366/2/6 367/2/6 370/2/6
f 358/1/6 359/1/6 371/1/6
f 370/2/6 358/2/6 371/2/6
f 368/2/6 369/2/6 372/2/6
f 371/1/6 359/1/6 372/1/6
f 359/2/6 368/2/6 372/2/6
f 372/2/6 369/2/6 373/2/6
f 366/2/6 370/2/6 374/2/6
f 370/1/6 371/1/6 374/1/6
f 372/1/6 373/1/6 374/1/6
f 371/1/6 372/1/6 374/1/6
f 374/1/6 373/1/6 375/1/6
f 375/1/6 373/1/6 376/1/6
f 373/2/6 369/2/6 377/2/6
f 376/1/6 373/1/6 377/1/6
f 366/2/6 374/2/6 378/2/6
f 374/2/6 375/2/6 378/2/6
f 375/1/6 376/1/6 379/1/6
f 378/2/6 375/2/6 379/2/6
f 376/2/6 377/2/6 380/2/6
f 379/1/6 376/1/6 380/1/6
f 377/2/6 369/2/6 381/2/6
f 380/2/6 377/2/6 381/2/6
f 366/2/6 378/2/6 382/2/6
f 379/1/6 380/1/6 382/1/6
f 380/1/6 381/1/6 382/1/6
f 378/1/6 379/1/6 382/1/6
f 382/1/6 381/1/6 383/1/6
f 383/1/6 381/1/6 384/1/6
f 381/2/6 369/2/6 385/2/6
f 384/1/6 381/1/6 385/1/6
f 366/2/6 382/2/6 386/2/6
f 382/2/6 383/2/6 386/2/6
f 386/2/6 383/2/6 387/2/6
f 383/1/6 384/1/6 388/1/6
f 387/2/6 383/2/6 388/2/6
f 384/2/6 385/2/6 389/2/6
f 388/1/6 384/1/6 389/1/6
f 385/2/6 369/2/6 390/2/6
f 389/2/6 385/2/6 390/2/6
f 390/2/6 369/2/6 391/2/6
f 388/2/6 389/2/6 393/2/6
f 389/2/6 390/2/6 393/2/6
f 387/2/6 388/2/6 393/2/6
f 393/2/6 390/2/6 394/2/6
f 392/2/6 393/2/6 396/2/6
f 394/2/6 395/2/6 396/2/6
f 393/2/6 394/2/6 396/2/6
f 396/2/6 395/2/6 397/2/6
f 392/2/6 396/2/6 398/2/6
f 398/2/6 396/2/6 399/2/6
f 397/2/6 395/2/6 400/2/6
f 400/2/6 395/2/6 401/2/6
f 399/2/6 396/2/6 402/2/6
f 396/1/6 397/1/6 402/1/6
f 397/2/6 400/2/6 403/2/6
f 402/1/6 397/1/6 403/1/6
f 399/2/6 402/2/6 404/2/6
f 402/2/6 403/2/6 404/2/6
f 403/2/6 400/2/6 405/2/6
f 404/2/6 403/2/6 405/2/6
f 406/4/6 407/4/6 412/4/6
f 407/3/6 408/3/6 413/3/6
f 412/4/6 407/4/6 413/4/6
f 410/4/6 411/4/6 414/4/6
f 409/3/6 410/3/6 414/3/6
f 414/4/6 411/4/6 415/4/6
f 412/3/6 413/3/6 416/3/6
f 413/3/6 408/3/6 417/3/6
f 416/3/6 413/3/6 417/3/6
f 409/3/6 414/3/6 418/3/6
f 414/3/6 415/3/6 418/3/6
f 418/3/6 415/3/6 419/3/6
